<?xml version="1.0" encoding="UTF-8" standalone="no"?>
<svg
   xmlns:dc="http://purl.org/dc/elements/1.1/"
   xmlns:cc="http://creativecommons.org/ns#"
   xmlns:rdf="http://www.w3.org/1999/02/22-rdf-syntax-ns#"
   xmlns:svg="http://www.w3.org/2000/svg"
   xmlns="http://www.w3.org/2000/svg"
   xmlns:sodipodi="http://sodipodi.sourceforge.net/DTD/sodipodi-0.dtd"
   xmlns:inkscape="http://www.inkscape.org/namespaces/inkscape"
   version="1.1"
   id="svg64"
   viewBox="0 0 800 100"
   inkscape:version="0.92.2 (30a58d1, 2017-08-07)"
   sodipodi:docname="egd_ru.svg"
   width="800"
   height="100">
  <metadata
     id="metadata233">
    <rdf:RDF>
      <cc:Work
         rdf:about="">
        <dc:format>image/svg+xml</dc:format>
        <dc:type
           rdf:resource="http://purl.org/dc/dcmitype/StillImage" />
        <dc:title></dc:title>
      </cc:Work>
    </rdf:RDF>
  </metadata>
  <defs
     id="defs231" />
  <sodipodi:namedview
     pagecolor="#ffffff"
     bordercolor="#666666"
     borderopacity="1"
     objecttolerance="10"
     gridtolerance="10"
     guidetolerance="10"
     inkscape:pageopacity="0"
     inkscape:pageshadow="2"
     inkscape:window-width="2560"
     inkscape:window-height="1375"
     id="namedview229"
     showgrid="false"
     inkscape:zoom="1.2005937"
     inkscape:cx="94.237742"
     inkscape:cy="32.666012"
     inkscape:window-x="1050"
     inkscape:window-y="33"
     inkscape:window-maximized="1"
     inkscape:current-layer="layer4"
     showguides="true"
     inkscape:guide-bbox="true">
    <sodipodi:guide
       position="193.85547,12.470703"
       orientation="0,1"
       id="guide4834"
       inkscape:locked="false" />
  </sodipodi:namedview>
  <g
     inkscape:groupmode="layer"
     id="layer1"
     inkscape:label="logo"
     transform="translate(0,-110)"
     style="display:inline"
     sodipodi:insensitive="true">
    <g
       style="display:inline"
       id="g4115"
       transform="matrix(0.50576168,0,0,0.50576168,235.47125,126.25314)">
      <g
         id="g4047"
         transform="translate(0,16.366098)">
        <path
           style="stroke-width:0.50576168"
           d="m 42.400391,4.1972656 c -20.736229,0 -37.5273441,16.8416914 -37.5273441,37.5273434 0,20.736229 16.7911151,37.527344 37.5273441,37.527344 V 47.894531 H 26.367188 V 46.074219 H 42.400391 V 25.691406 H 26.367188 v -1.820312 h 16.033203 z m 41.320312,0 c -20.736229,0 -37.527344,16.7911154 -37.527344,37.5273434 0,20.736229 16.791115,37.527344 37.527344,37.527344 20.736227,0 37.527347,-16.791115 37.527347,-37.527344 0,-5.732584 -1.29388,-11.167671 -3.59961,-16.033203 -11.95859,0 -24.873355,0 -35.343752,0 v 21.091797 h 18.509762 c -2.214414,7.357626 -9.038481,12.744141 -17.093747,12.744141 -9.811776,0 -17.802734,-7.990958 -17.802734,-17.802735 0,-4.653007 1.769189,-9.052803 5.05664,-12.441406 3.236875,-3.338027 7.587227,-5.260381 12.240235,-5.412109 H 116.73047 C 110.38067,12.164899 97.983633,4.1972656 83.720703,4.1972656 Z m 41.826177,0 V 23.871094 h 13.80859 v 1.820312 h -13.80859 v 53.560547 c 20.73622,0 37.52734,-16.791115 37.52734,-37.527344 0,-20.685652 -16.79112,-37.5273434 -37.52734,-37.5273434 z"
           transform="matrix(1.9772158,0,0,1.9772158,-465.57748,-32.135966)"
           id="path3816"
           inkscape:connector-curvature="0"
           sodipodi:nodetypes="csccccccccccssssccccsscccsccccccsc" />
      </g>
    </g>
  </g>
  <g
     inkscape:groupmode="layer"
     id="layer4"
     inkscape:label="rus"
     transform="translate(0,-110)"
     sodipodi:insensitive="true">
    <g
       style="display:inline"
       id="g4704"
       transform="matrix(1.4615485,0,0,1.4615485,-48.614681,-1.6797404)">
      <g
         id="g4584">
        <path
           style="stroke-width:1.46154845"
           d="m 652.19727,9.3359375 c 0.14615,4.0923355 2.48451,7.4550785 7.74609,7.4550785 5.40773,0 7.59994,-3.362743 7.74609,-7.4550785 h -4.23828 c -0.14615,2.6307875 -1.02318,4.3847655 -3.50781,4.3847655 -2.63079,0 -3.36166,-1.753978 -3.50781,-4.3847655 z M 260.21094,10.652344 v 7.599609 l 0.14648,3.361328 c -1.31539,-0.876929 -2.63124,-1.460937 -4.53125,-1.460937 -4.67695,0 -8.91601,4.530807 -8.91601,12.130859 0,7.600052 3.50828,12.130859 8.91601,12.130859 1.75386,0 3.21586,-0.730492 4.53125,-1.607421 l -0.14648,3.507812 v 6.869141 h 5.26172 v -6.72461 l -0.14649,-3.361328 c 1.3154,0.876929 2.92322,1.462891 4.38477,1.462891 4.67695,0 8.91601,-4.677951 8.91601,-12.570313 0,-7.161587 -3.21694,-11.83789 -8.47851,-11.83789 -1.60771,0 -3.36072,0.730493 -4.82227,1.607422 l 0.14649,-3.507813 v -7.599609 z m -44.28516,1.753906 c -3.21541,0 -5.11498,1.314573 -7.59961,5.699219 l -4.09375,7.455078 h -4.38476 V 12.990234 h -5.40625 v 30.984375 h 5.40625 V 30.089844 h 4.38476 l 8.76953,13.884765 h 5.84766 l -10.23242,-16.515625 3.65429,-6.429687 c 1.60771,-2.776942 2.33924,-3.361328 3.80079,-3.361328 0.29231,0 0.7295,-0.0016 1.16796,0.144531 l 0.87696,-4.96875 c -0.58462,-0.29231 -1.46063,-0.4375 -2.19141,-0.4375 z m 16.66211,7.453125 c -3.65387,0 -7.01537,1.462609 -9.5,3.070313 l 2.04492,3.652343 c 2.19233,-1.169239 4.3858,-2.191406 6.57813,-2.191406 3.2154,0 4.09212,2.046618 4.23828,4.53125 -9.50007,1.023084 -13.59375,3.653782 -13.59375,8.623047 0,4.092336 2.77876,6.868481 6.87109,6.576172 2.71994,0 5.01528,-1.264987 7.03125,-2.964844 l 0.42188,2.380859 h 4.53125 V 29.798828 c 0,-6.430813 -2.92301,-9.939453 -8.62305,-9.939453 z m 141.47656,0 c -3.65387,0 -7.01536,1.462609 -9.5,3.070313 l 2.04688,3.652343 c 2.19232,-1.169239 4.38385,-2.191406 6.57617,-2.191406 3.21541,0 4.09213,2.046618 4.23828,4.53125 -9.50006,1.023084 -13.5918,3.653782 -13.5918,8.623047 0,4.092336 2.7781,6.868481 6.57813,6.576172 2.77694,0 5.11399,-1.314501 7.16016,-3.06836 h 0.14648 l 0.43945,2.484375 h 4.5293 V 29.798828 c 0,-6.430813 -2.92301,-9.939453 -8.62305,-9.939453 z m -24.40625,0.146484 c -2.63078,0 -5.11561,1.460656 -7.01562,3.06836 h -0.14649 l -0.43945,-2.484375 h -4.5293 v 32.447265 h 5.40625 v -7.308593 l -0.14648,-3.798828 c 1.90001,1.607703 3.94797,2.484374 5.99414,2.484374 5.11542,0 9.9375,-4.67795 9.9375,-12.570312 0,-7.161588 -3.36051,-11.837891 -9.06055,-11.837891 z m 104.79297,0 c -0.58462,0 -1.17091,0.146814 -1.60937,0.292969 l 0.87695,5.115234 c 0.29231,-0.146154 0.58464,-0.146484 0.87695,-0.146484 1.02309,0 2.19339,0.438866 3.07032,2.777344 l 1.60742,3.652344 -7.16211,12.130859 h 5.84765 l 5.25977,-9.791016 h 2.92383 v 9.791016 h 4.82226 v -9.791016 h 2.92383 l 5.26172,9.791016 h 5.8457 l -7.30664,-12.130859 1.60743,-3.652344 c 0.87692,-2.338478 1.89912,-2.777344 3.06835,-2.777344 0.29231,0 0.58465,3.3e-4 0.87696,0.146484 l 0.87695,-5.115234 c -0.43846,-0.146155 -1.0228,-0.292969 -1.60742,-0.292969 -2.9231,0 -5.11495,1.168724 -6.72266,4.96875 l -2.19336,4.677735 h -2.77539 v -9.0625 h -4.82422 v 9.0625 h -2.77734 l -2.04492,-4.677735 c -1.75386,-3.946181 -3.79956,-4.96875 -6.72266,-4.96875 z m 125.10742,0 c -2.63078,0 -5.11561,1.460656 -7.01562,3.06836 h -0.14649 l -0.4375,-2.484375 h -4.53125 v 32.447265 h 5.40821 v -7.308593 l -0.14649,-3.798828 c 1.90002,1.607703 3.94602,2.484374 5.99219,2.484374 5.11542,0 9.93945,-4.67795 9.93945,-12.570312 0,-7.161588 -3.36246,-11.837891 -9.0625,-11.837891 z m -285.14843,0.146485 c -5.40773,0 -10.66797,4.530807 -10.66797,12.130859 0,7.600052 4.96795,12.13053 11.54492,11.984375 2.9231,0 5.70025,-1.022826 7.89258,-2.484375 l -1.90039,-3.361328 c -1.75386,1.169239 -3.36009,1.753906 -5.40625,1.753906 -3.80003,0 -6.43068,-2.339305 -6.86914,-6.43164 h 14.76171 c 0.14616,-0.58462 0.29102,-1.607776 0.29102,-2.63086 0,-6.430813 -3.36183,-10.960937 -9.64648,-10.960937 z m 204.61718,0 c -5.40773,0 -10.66992,4.530807 -10.66992,12.130859 0,7.600052 4.96991,12.13053 11.54688,11.984375 2.92309,0 5.70025,-1.022826 7.89258,-2.484375 l -1.9004,-3.361328 c -1.75385,1.169239 -3.36203,1.753906 -5.4082,1.753906 -3.80002,0 -6.43067,-2.339305 -6.86914,-6.43164 h 14.76172 c 0.14615,-0.58462 0.29297,-1.607776 0.29297,-2.63086 0,-6.430813 -3.36183,-10.960937 -9.64649,-10.960937 z m 52.61524,0 c -5.40773,0 -10.66797,4.530807 -10.66797,12.130859 0,7.600052 5.11411,12.13053 11.54492,11.984375 2.9231,0 5.70026,-1.022826 7.89258,-2.484375 l -1.90039,-3.361328 c -1.75386,1.169239 -3.36008,1.753906 -5.40625,1.753906 -3.80003,0 -6.43068,-2.339305 -6.86914,-6.43164 h 14.76172 c 0.14615,-0.58462 0.29101,-1.607776 0.29101,-2.63086 0,-6.430813 -3.36182,-10.960937 -9.64648,-10.960937 z m 80.38672,0 c -5.70004,0 -10.96289,4.384652 -10.96289,12.130859 0,7.600052 5.11669,12.130859 10.96289,12.130859 5.84619,0 11.10742,-4.384652 11.10742,-12.130859 0,-7.746207 -5.26123,-12.130859 -11.10742,-12.130859 z m -233.11719,0.4375 v 23.09375 h 4.96875 l 7.30859,-11.400391 c 0.87693,-1.461548 2.1911,-3.507201 2.92188,-4.96875 h 0.14648 c -0.29231,2.923097 -0.58398,5.991601 -0.58398,8.330078 v 8.039063 h 5.26172 v -23.09375 h -4.97071 l -7.30664,11.40039 c -0.73077,1.461549 -2.19305,3.507202 -2.92382,4.96875 h -0.14649 c 0.14616,-2.923097 0.43945,-5.9916 0.43945,-8.330078 v -8.039062 z m 27.47656,0 v 23.09375 h 5.40821 v -9.5 h 9.20703 v 9.5 h 5.4082 v -23.09375 h -5.4082 v 8.916015 h -9.20703 v -8.916015 z m 88.42383,0 v 23.09375 h 5.4082 v -9.5 h 9.20703 v 9.5 h 5.40821 v -23.09375 h -5.40821 v 8.916015 h -9.20703 v -8.916015 z m 80.0918,0 v 23.09375 h 5.4082 v -9.5 h 9.20898 v 9.5 h 5.40625 v -23.09375 h -5.40625 v 8.916015 h -9.20898 v -8.916015 z m 54.95508,0 v 23.09375 h 4.96874 l 7.3086,-11.400391 c 0.87693,-1.461548 2.1911,-3.507201 2.92187,-4.96875 h 0.14649 c -0.29231,2.923097 -0.58399,5.991601 -0.58399,8.330078 v 8.039063 h 5.26172 v -23.09375 h -4.96875 l -7.30859,11.40039 c -0.73078,1.461549 -2.19306,3.507202 -2.92383,4.96875 h -0.14453 c 0.14615,-2.923097 0.4375,-5.9916 0.4375,-8.330078 v -8.039062 z m -337.17969,0.146484 -1.16797,9.646484 c -0.73078,6.869278 -1.75459,8.477881 -2.92383,9.0625 h -1.31641 v 3.50586 l 0.58594,8.916016 h 4.67578 0.14649 v -8.039063 h 14.32422 v 8.185547 h 4.52929 l 0.58594,-8.916016 v -3.507812 h -3.50781 V 20.736328 Z m -18.12305,3.654297 c 3.06925,0 4.67774,2.045347 4.67774,5.699219 h -10.23047 c 0.43846,-3.653872 2.77579,-5.699219 5.55273,-5.699219 z m 204.61719,0 c 3.06925,0 4.67773,2.045347 4.67773,5.699219 h -10.23242 c 0.43847,-3.653872 2.77775,-5.699219 5.55469,-5.699219 z m 52.76172,0 c 3.06925,0 4.67773,2.045347 4.67773,5.699219 h -10.23242 c 0.43846,-3.653872 2.77774,-5.699219 5.55469,-5.699219 z m -294.79493,0.146484 c 1.16924,0 2.33825,0.29104 3.36133,1.167969 v 12.863281 c -1.02308,1.023084 -2.0456,1.314453 -3.21484,1.314453 -2.9231,0 -4.53125,-2.776828 -4.53125,-7.746093 0,-4.82311 1.90013,-7.59961 4.38476,-7.59961 z m 11.69336,0 c 3.06926,0 4.38477,2.629686 4.38477,7.306641 0,5.261575 -1.90046,8.039062 -4.53125,8.039062 -0.87693,0 -2.0456,-0.292992 -3.21484,-1.169921 V 25.851562 c 1.16924,-1.023083 2.33824,-1.314453 3.36132,-1.314453 z m 79.21485,0 c 3.50771,0 4.9707,2.629686 4.9707,7.306641 0,5.261575 -2.33895,8.039062 -5.4082,8.039062 -1.3154,0 -2.92388,-0.438842 -4.67774,-1.90039 V 27.167969 c 1.75386,-1.753858 3.36138,-2.63086 5.11524,-2.63086 z m 229.90234,0 c 3.50772,0 4.96875,2.629686 4.96875,7.306641 0,5.261575 -2.337,8.039062 -5.40625,8.039062 -1.31539,0 -2.92387,-0.438842 -4.67773,-1.90039 V 27.167969 c 1.75386,-1.753858 3.36137,-2.63086 5.11523,-2.63086 z m 54.07813,0 c 3.36156,0 5.40625,3.069139 5.40625,7.746094 0,4.5308 -2.04469,7.599939 -5.40625,7.746094 -3.36156,0 -5.40821,-3.069139 -5.40821,-7.746094 0,-4.676955 2.04665,-7.746094 5.40821,-7.746094 z m -314.96485,0.4375 h 6.13867 v 14.470703 h -9.06054 c 1.02308,-1.753858 1.75294,-4.238706 2.1914,-7.892578 z m -81.11523,7.308594 v 5.261719 c -1.75386,1.607703 -3.06874,2.63053 -4.96875,2.484375 -1.90001,0 -3.36328,-0.87766 -3.36328,-2.923828 0,-2.338478 2.04737,-4.091492 8.33203,-4.822266 z m 141.47656,0 v 5.261719 c -1.75386,1.607703 -3.06874,2.63053 -4.96875,2.484375 -1.90001,0 -3.36133,-0.87766 -3.36133,-2.923828 0,-2.338478 2.04542,-4.091492 8.33008,-4.822266 z m 159.16406,20.900391 c 0.14616,4.092336 2.33837,7.453125 7.7461,7.453125 5.40773,0 7.59994,-3.360789 7.74609,-7.453125 h -4.23828 c -0.14615,2.630787 -1.02318,4.384765 -3.50781,4.384765 -2.63079,0 -3.36166,-1.753978 -3.50782,-4.384765 z m -257.3789,1.314453 v 7.599609 l 0.14648,3.361328 c -1.31539,-0.876929 -2.63124,-1.460937 -4.53125,-1.460937 -4.67695,0 -8.91601,4.530807 -8.91601,12.130859 0,7.600052 3.50828,12.13086 8.91601,12.13086 1.75386,0 3.21586,-0.730493 4.53125,-1.607422 l -0.14648,3.507812 v 6.869141 h 5.26172 v -6.722656 l -0.14649,-3.361329 c 1.3154,0.87693 2.92322,1.460938 4.38477,1.460938 4.67695,0 8.91601,-4.675997 8.91601,-12.568359 0,-7.161588 -3.21694,-11.839844 -8.47851,-11.839844 -1.60771,0 -3.36072,0.730493 -4.82227,1.607422 l 0.14649,-3.507813 v -7.599609 z m -27.62305,9.208984 c -3.65387,0 -7.01537,1.460656 -9.5,3.06836 l 2.04492,3.654297 c 2.19233,-1.169239 4.3858,-2.19336 6.57813,-2.19336 3.2154,0 4.09212,2.046618 4.23828,4.53125 -9.50007,1.023084 -13.5918,3.653782 -13.5918,8.623047 0,4.092336 2.77681,6.870435 6.86914,6.578125 2.72046,0 5.01695,-1.266445 7.03321,-2.966797 l 0.41992,2.380859 h 4.53125 V 73.644531 c 0,-6.430813 -2.92301,-9.9375 -8.62305,-9.9375 z m 266.43945,0 c -3.65387,0 -7.01536,1.460656 -9.5,3.06836 l 2.04688,3.654297 c 2.19232,-1.169239 4.38385,-2.19336 6.57617,-2.19336 3.21541,0 4.09213,2.046618 4.23828,4.53125 -9.50006,1.023084 -13.59179,3.653782 -13.59179,8.623047 0,4.092336 2.77614,6.870435 6.57617,6.578125 2.77694,0 5.11594,-1.316454 7.16211,-3.070312 h 0.14648 l 0.4375,2.484374 h 4.53125 V 73.644531 c 0,-6.430813 -2.92301,-9.9375 -8.62305,-9.9375 z m 80.38477,0 c -3.65387,0 -7.01537,1.460656 -9.5,3.06836 l 2.04687,3.654297 c 2.19233,-1.169239 4.38385,-2.19336 6.57618,-2.19336 3.2154,0 4.09212,2.046618 4.23828,4.53125 -9.50007,1.023084 -13.5918,3.653782 -13.5918,8.623047 0,4.092336 2.7781,6.870435 6.57813,6.578125 2.77694,0 5.11398,-1.316454 7.16015,-3.070312 h 0.14649 l 0.43945,2.484374 h 4.5293 V 73.644531 c 0,-6.430813 -2.92301,-9.9375 -8.62305,-9.9375 z m -371.23242,0.144531 c -2.63079,10e-7 -5.11561,1.46261 -7.01563,3.070313 h -0.14648 l -0.4375,-2.484375 h -4.53125 v 32.445312 h 5.4082 v -7.30664 l -0.14648,-3.800781 c 1.90001,1.607703 3.94602,2.484375 5.99218,2.484375 5.11542,0 9.9375,-4.675998 9.9375,-12.56836 0,-7.161587 -3.3605,-11.839844 -9.06054,-11.839844 z m 122.03906,0 c -2.9231,0 -4.9688,1.024523 -6.72266,4.970704 l -2.19336,4.675781 h -3.36132 V 64.4375 h -5.40821 v 23.384766 h 5.40821 v -9.792969 h 3.50781 l 5.8457,9.792969 h 5.99219 l -7.89063,-12.277344 1.60743,-3.654297 c 1.02308,-2.338478 1.89912,-2.777344 3.06836,-2.777344 0.29231,0 0.58464,3.3e-4 0.87695,0.146485 l 0.87695,-5.115235 c -0.43846,-0.146155 -1.0228,-0.292969 -1.60742,-0.292969 z m 143.52344,0.146485 c -3.21541,0 -5.9916,0.876672 -8.33008,2.484375 l 2.19141,3.507812 c 1.75385,-1.169238 3.50917,-1.753906 5.84765,-1.753906 2.48463,0 4.0918,0.877331 4.0918,2.777344 0,1.900013 -1.46167,2.923828 -4.38477,2.923828 h -2.92382 v 3.652344 h 3.36328 c 3.06925,0 4.67578,1.024144 4.67578,3.070312 0,2.046168 -2.19181,3.361328 -4.96875,3.361328 -1.90002,0 -4.09251,-0.583703 -6.13867,-2.191406 l -2.19336,3.507813 c 2.92309,2.192322 5.70028,2.921545 8.76953,2.77539 5.11542,0 9.93945,-2.484824 9.93945,-7.015625 0,-3.215406 -1.90079,-4.82196 -4.67773,-5.552734 v -0.146484 c 2.48463,-0.87693 3.80078,-2.922583 3.80078,-4.96875 0,-4.384646 -4.23939,-6.431641 -9.0625,-6.431641 z M 193.85547,64.4375 v 23.091797 h 5.4082 V 68.675781 h 9.79297 V 64.4375 Z m 110.05469,0 v 23.091797 h 4.9707 l 7.30664,-11.400391 c 0.87693,-1.461548 2.19305,-3.507201 2.92383,-4.96875 h 0.14648 c -0.29231,2.923097 -0.58593,5.991601 -0.58593,8.330078 v 8.039063 h 5.26171 V 64.4375 h -4.96875 l -7.30859,11.400391 c -0.73077,1.461548 -2.1911,3.507201 -2.92187,4.96875 h -0.14649 c 0.14616,-2.923097 0.4375,-5.993554 0.4375,-8.332032 V 64.4375 Z m 53.78515,0 v 23.091797 h 4.97071 l 7.30664,-11.400391 c 0.87693,-1.461548 2.19305,-3.507201 2.92382,-4.96875 h 0.14649 c -0.29231,2.923097 -0.58594,5.991601 -0.58594,8.330078 v 8.039063 h 5.26172 V 64.4375 H 372.75 l -7.30859,11.400391 c -0.73078,1.461548 -2.1911,3.507201 -2.92188,4.96875 h -0.14648 c 0.14615,-2.923097 0.4375,-5.993554 0.4375,-8.332032 V 64.4375 Z m 36.53907,0 v 23.091797 h 4.96874 l 7.3086,-11.400391 c 0.87693,-1.461548 2.19305,-3.507201 2.92383,-4.96875 h 0.14453 c -0.29231,2.923097 -0.58399,5.991601 -0.58399,8.330078 v 8.039063 h 5.26172 V 64.4375 h -4.96875 l -7.30859,11.400391 c -0.73078,1.461548 -2.1911,3.507201 -2.92188,4.96875 h -0.14648 c 0.14615,-2.923097 0.4375,-5.993554 0.4375,-8.332032 V 64.4375 Z m 63.7246,0 v 23.091797 h 4.96875 l 7.30665,-11.400391 c 0.87692,-1.461548 2.19305,-3.507201 2.92382,-4.96875 h 0.29297 c -0.29231,2.923097 -0.58594,5.991601 -0.58594,8.330078 v 8.039063 h 5.26172 V 64.4375 h -4.96875 l -7.30859,11.400391 c -0.73077,1.461548 -2.1911,3.507201 -2.92188,4.96875 h -0.14648 c 0.14615,-2.923097 0.4375,-5.993554 0.4375,-8.332032 V 64.4375 Z m 76.14649,0 v 23.091797 h 4.96875 l 7.30664,-11.400391 c 0.87693,-1.461548 2.19305,-3.507201 2.92383,-4.96875 h 0.14648 c -0.29231,2.923097 -0.58398,5.991601 -0.58398,8.330078 v 8.039063 h 5.25976 V 64.4375 h -4.96875 l -7.30664,11.400391 c -0.73077,1.461548 -2.19305,3.507201 -2.92383,4.96875 h -0.14648 c 0.14615,-2.923097 0.43945,-5.993554 0.43945,-8.332032 V 64.4375 Z m 27.62305,0 v 23.091797 h 5.40625 v -9.5 h 9.20898 v 9.5 h 5.4082 V 64.4375 h -5.4082 v 8.914062 h -9.20898 V 64.4375 Z m -128.47071,0.146484 -1.16992,9.644532 c -0.73077,6.869278 -1.75264,8.47788 -2.92187,9.0625 h -1.31641 v 3.507812 l 0.58594,8.916016 h 4.67578 v -8.039063 h 14.32422 v 8.183594 h 4.67578 l 0.58594,-8.914063 V 83.4375 h -3.50782 V 64.583984 Z m -207.68554,3.798828 c 3.50771,0 4.96875,2.631639 4.96875,7.308594 0,5.261575 -2.33896,8.03711 -5.40821,8.03711 -1.31539,0 -2.92192,-0.436889 -4.67578,-1.898438 V 71.013672 c 1.75386,-1.753858 3.36138,-2.63086 5.11524,-2.63086 z m 50.56835,0 c 1.16924,10e-7 2.3402,0.292993 3.36329,1.169922 v 12.861328 c -1.16924,1.023084 -2.04756,1.314454 -3.2168,1.314454 -2.9231,0 -4.53125,-2.776829 -4.53125,-7.746094 0,-4.82311 1.90013,-7.59961 4.38476,-7.59961 z m 11.54688,0 c 3.06925,0 4.38477,2.631639 4.38477,7.308594 0,5.261575 -1.90047,8.03711 -4.53125,8.03711 -0.87693,0 -2.04561,-0.29104 -3.21485,-1.167969 V 69.699219 c 1.16924,-1.023084 2.33825,-1.316407 3.36133,-1.316407 z m 149.80859,0.439454 h 6.13868 v 14.46875 h -9.06055 c 1.02308,-1.753859 1.8991,-4.238707 2.1914,-7.892578 z m -182.54687,7.30664 v 5.261719 c -1.75386,1.607703 -3.21489,2.63053 -4.96875,2.484375 -1.90001,0 -3.36328,-0.875707 -3.36328,-2.921875 0,-2.338478 2.04737,-4.093445 8.33203,-4.824219 z m 266.43945,0 v 5.261719 c -1.75386,1.607703 -3.21489,2.63053 -4.96875,2.484375 -1.90001,0 -3.36133,-0.875707 -3.36133,-2.921875 0,-2.338478 2.04542,-4.093445 8.33008,-4.824219 z m 80.38477,0 v 5.261719 c -1.75386,1.607703 -3.06874,2.63053 -4.96875,2.484375 -1.90002,0 -3.36133,-0.875707 -3.36133,-2.921875 0,-2.338478 2.04542,-4.093445 8.33008,-4.824219 z"
           transform="matrix(0.68420583,0,0,0.68420583,33.262448,76.411929)"
           id="path4520"
           inkscape:connector-curvature="0" />
      </g>
    </g>
  </g>
</svg>
